<svg xmlns="http://www.w3.org/2000/svg" viewBox="0 0 520 180" role="img" aria-label="PDN UA">
  <defs>
    <linearGradient id="metal" x1="0" x2="1" y1="0" y2="1">
      <stop offset="0" stop-color="#ffffff"/>
      <stop offset="0.18" stop-color="#7d8790"/>
      <stop offset="0.34" stop-color="#f2f5f8"/>
      <stop offset="0.58" stop-color="#4b5560"/>
      <stop offset="1" stop-color="#dce3ea"/>
    </linearGradient>
    <linearGradient id="blue" x1="0" x2="1">
      <stop offset="0" stop-color="#0a72ff"/>
      <stop offset="1" stop-color="#25d7ff"/>
    </linearGradient>
    <filter id="glow" x="-20%" y="-20%" width="140%" height="140%">
      <feDropShadow dx="0" dy="0" stdDeviation="4" flood-color="#0a72ff" flood-opacity="0.5"/>
      <feDropShadow dx="0" dy="8" stdDeviation="8" flood-color="#000000" flood-opacity="0.55"/>
    </filter>
  </defs>
  <rect width="520" height="180" fill="none"/>
  <g filter="url(#glow)">
    <path d="M34 38h118c38 0 62 18 62 48 0 32-25 50-63 50H91v26H34V38Zm57 42v20h54c9 0 15-4 15-10s-6-10-15-10H91Z" fill="url(#metal)"/>
    <path d="M221 38h99c57 0 92 25 92 62s-35 62-92 62h-99V38Zm57 44v36h39c24 0 38-7 38-18s-14-18-38-18h-39Z" fill="url(#metal)"/>
    <path d="M421 38h54l10 63 20-63h42l-37 124h-62l-9-60-20 60h-42l44-124Z" fill="url(#metal)" transform="translate(-36 0)"/>
  </g>
  <g filter="url(#glow)">
    <path d="M203 145h34v-31h20v31h34v17h-88v-17Z" fill="#ffc247"/>
    <text x="316" y="164" font-family="Segoe UI, Arial, sans-serif" font-size="52" font-weight="900" fill="url(#blue)">UA</text>
  </g>
</svg>
